<svg id="Vrstva_1" data-name="Vrstva 1" xmlns="http://www.w3.org/2000/svg" viewBox="0 0 114.6 80.31"><defs><style>.cls-1{fill:#9974f9;}</style></defs><path class="cls-1" d="M171.78,411.27l-42.19,42.19a8.53,8.53,0,0,1-12.06,0L99.46,435.38a8.52,8.52,0,0,1,12.05-12.05l12,12.05,30.18-30.13-12-12.06A8.52,8.52,0,1,1,153.5,380.9l.24.24,18.08,18.08A8.53,8.53,0,0,1,171.78,411.27Z" transform="translate(-59.7 -375.65)"/><path class="cls-1" d="M62.19,420.31l42.2-42.19a8.53,8.53,0,0,1,12,0l18.07,18.09a8.53,8.53,0,0,1-11.81,12.3l-.24-.24-12-12.06L80.27,426.34l12,12.06a8.52,8.52,0,0,1-12,12l-18.08-18a8.53,8.53,0,0,1,0-12.06Z" transform="translate(-59.7 -375.65)"/></svg>