<?xml version="1.0" encoding="utf-8"?>
<!-- Generator: Adobe Illustrator 25.0.0, SVG Export Plug-In . SVG Version: 6.00 Build 0)  -->
<svg version="1.1" id="Vrstva_1" xmlns="http://www.w3.org/2000/svg" xmlns:xlink="http://www.w3.org/1999/xlink" x="0px" y="0px"
	 viewBox="0 0 595.28 841.89" style="enable-background:new 0 0 595.28 841.89;" xml:space="preserve">
<style type="text/css">
	.st0{fill:#D0161A;}
</style>
<path class="st0" d="M568,611.62c-76.06,54.07-169.06,85.87-269.48,85.87c-99.9,0-192.45-31.46-268.28-85.03
	c-0.08-0.63-0.13-1.25-0.17-1.89c-0.03-0.17-0.05-0.36-0.06-0.55c-1.33-14.28-2-28.75-2-43.38c0-84.48,22.5-163.7,61.84-232
	c48.04-83.46,121.24-150.62,209.24-191.14l-0.16,153.89c-0.14-0.06-0.27-0.13-0.41-0.19c-44.52,20.49-81.38,54.82-105.07,97.46
	c-18.33,33.02-28.79,71.02-28.79,111.46c0,7.23,0.33,14.38,0.99,21.43c0,0.09,0.02,0.19,0.03,0.27c0.02,0.31,0.05,0.63,0.08,0.94
	c1.24,0.88,2.49,1.74,3.74,2.58c36.73,24.87,81.04,39.39,128.73,39.39h0.42c48.03-0.09,92.6-14.89,129.44-40.16l-128.98-74.72
	l104.61-60.93h0.02l110.92,63.12L568,611.62z"/>
</svg>
